<mxfile host="app.diagrams.net" modified="2024-02-26T14:01:25.248Z" agent="Mozilla/5.0 (X11; Ubuntu; Linux x86_64; rv:109.0) Gecko/20100101 Firefox/116.0" version="23.1.6" etag="FNOGx1ope2yNXrZaaSPo" type="github">
  <diagram name="Page-1" id="zVzV0pCRCNhUKtl1kxpJ">
    <mxGraphModel>
      <root>
        <mxCell id="0" />
        <mxCell id="1" parent="0" />
      </root>
    </mxGraphModel>
  </diagram>
</mxfile>
